<?xml version="1.0" encoding="utf-8"?>
<!-- Generator: Adobe Illustrator 28.1.0, SVG Export Plug-In . SVG Version: 6.00 Build 0)  -->
<svg version="1.1" id="Layer_1" xmlns="http://www.w3.org/2000/svg" xmlns:xlink="http://www.w3.org/1999/xlink" x="0px" y="0px"
	 viewBox="0 0 1350 1080" style="enable-background:new 0 0 1350 1080;" xml:space="preserve">
<path d="M235.98,612.06c0,0,113.76-329.77,451.55-513.42c0,0,146.52-78.26,256.7-40.94s186.85,175.65,67.63,461.79
	c0,0,88.86-247.08-16.42-334.03s-346.99,307.2-346.99,307.2l296.81,34.79L235.98,612.06z"/>
<path d="M214.92,673.89c0,0-76.4,235.31,50.66,333.95s414.21,13.49,667.92-345.94l370.16-136.08l-710.9,98.76
	c0,0-200.37,312.16-309.62,286.9C173.89,886.22,214.92,673.89,214.92,673.89z"/>
</svg>
